# xmcd CD database file
#
# Track frame offsets:
#	151
#	8652
#	26728
#	41594
#	63595
#	79973
#	100748
#	118161
#	143613
#	160886
#	182103
#	195975
#	215818
#	233934
#	253863
#
# Disc length: 3775 seconds
#
# Revision: 0
# Processed by: cddbd v1.5.2PL0 Copyright (c) Steve Scherf et al.
# Submitted via: CDex 1.70beta2
#
DISCID=d10ebd0f
DTITLE=Jan Lundgren - History of piano jazz
DYEAR=2006
DGENRE=Jazz
TTITLE0=Tenderly
TTITLE1=Hymn to freedom
TTITLE2=Lotus blossom
TTITLE3=Tea for two
TTITLE4=Like it is
TTITLE5=Taking a chance on love
TTITLE6=Walz-a-nova
TTITLE7=Yesterdays
TTITLE8=Over the rainbow
TTITLE9=Django
TTITLE10=Visa från Utanmyra
TTITLE11=I´ve never been in love before
TTITLE12=Quiet now
TTITLE13=Passion dance
TTITLE14=Country
EXTD=YEAR: 2006
EXTT0=
EXTT1=
EXTT2=
EXTT3=
EXTT4=
EXTT5=
EXTT6=
EXTT7=
EXTT8=
EXTT9=
EXTT10=
EXTT11=
EXTT12=
EXTT13=
EXTT14=
PLAYORDER=
